HIERARCHY
ROOT Pelvis
{
	OFFSET 0.000000 0.000000 0.000000
	CHANNELS 6 Xposition Yposition Zposition Xrotation Yrotation Zrotation
	JOINT LeftUpLeg_virtual
	{
		OFFSET 0.000000 0.000000 0.000000
		CHANNELS 3 Xrotation Yrotation Zrotation
		JOINT LeftUpLeg
		{
			OFFSET 18.735201 -5.666702 -4.541200
			CHANNELS 3 Xrotation Yrotation Zrotation
			JOINT LeftLeg
			{
				OFFSET -0.021200 -31.938179 0.493100
				CHANNELS 3 Xrotation Yrotation Zrotation
				JOINT LeftFoot
				{
					OFFSET 0.021200 -31.938179 -4.336299
					CHANNELS 3 Xrotation Yrotation Zrotation
					JOINT LeftToeBase
					{
						OFFSET 0.943001 -26.722000 15.023500
						CHANNELS 3 Xrotation Yrotation Zrotation
						End Site
						{
							OFFSET 0 0 0
						}
					}
				}
			}
		}
	}
	JOINT RightUpLeg_virtual
	{
		OFFSET 0.000000 0.000000 0.000000
		CHANNELS 3 Xrotation Yrotation Zrotation
		JOINT RightUpLeg
		{
			OFFSET -18.735201 -5.666702 -4.541200
			CHANNELS 3 Xrotation Yrotation Zrotation
			JOINT RightLeg
			{
				OFFSET 0.018946 -31.938133 0.493100
				CHANNELS 3 Xrotation Yrotation Zrotation
				JOINT RightFoot
				{
					OFFSET -0.018946 -31.938126 -4.336299
					CHANNELS 3 Xrotation Yrotation Zrotation
					JOINT RightToeBase
					{
						OFFSET -0.943001 -26.722004 15.023500
						CHANNELS 3 Xrotation Yrotation Zrotation
						End Site
						{
							OFFSET 0 0 0
						}
					}
				}
			}
		}
	}
	JOINT Hips_virtual
	{
		OFFSET 0.000000 0.000000 0.000000
		CHANNELS 3 Xrotation Yrotation Zrotation
		JOINT Hips
		{
			OFFSET -0.000000 -0.000000 -0.000000
			CHANNELS 3 Xrotation Yrotation Zrotation
			JOINT Spine
			{
				OFFSET 0.000000 10.199997 -0.299500
				CHANNELS 3 Xrotation Yrotation Zrotation
				JOINT Spine1
				{
					OFFSET 0.000000 11.900002 -1.516600
					CHANNELS 3 Xrotation Yrotation Zrotation
					JOINT Spine2
					{
						OFFSET 0.000000 13.600006 -2.842500
						CHANNELS 3 Xrotation Yrotation Zrotation
						JOINT Neck_virtual
						{
							OFFSET 0.000000 0.000000 0.000000
							CHANNELS 3 Xrotation Yrotation Zrotation
							JOINT Neck
							{
								OFFSET 0.000000 9.624100 -2.890100
								CHANNELS 3 Xrotation Yrotation Zrotation
								JOINT Head
								{
									OFFSET 0.000000 14.068802 -1.351900
									CHANNELS 3 Xrotation Yrotation Zrotation
									End Site
									{
										OFFSET 0 0 0
									}
								}
							}
						}
						JOINT LeftShoulder_virtual
						{
							OFFSET 0.000000 0.000000 0.000000
							CHANNELS 3 Xrotation Yrotation Zrotation
							JOINT LeftShoulder
							{
								OFFSET 15.263000 10.923401 -0.547700
								CHANNELS 3 Xrotation Yrotation Zrotation
								JOINT LeftArm
								{
									OFFSET 25.438599 -2.830597 -13.032500
									CHANNELS 3 Xrotation Yrotation Zrotation
									JOINT LeftForeArm
									{
										OFFSET 29.960503 0.000000 0.000000
										CHANNELS 3 Xrotation Yrotation Zrotation
										JOINT LeftHand
										{
											OFFSET 27.849251 0.000000 0.000000
											CHANNELS 3 Xrotation Yrotation Zrotation
											End Site
											{
												OFFSET 0 0 0
											}
										}
									}
								}
							}
						}
						JOINT RightShoulder_virtual
						{
							OFFSET 0.000000 0.000000 0.000000
							CHANNELS 3 Xrotation Yrotation Zrotation
							JOINT RightShoulder
							{
								OFFSET -15.263000 10.923401 -0.547700
								CHANNELS 3 Xrotation Yrotation Zrotation
								JOINT RightArm
								{
									OFFSET -25.438599 -2.830597 -13.032500
									CHANNELS 3 Xrotation Yrotation Zrotation
									JOINT RightForeArm
									{
										OFFSET -29.960503 0.000000 0.000000
										CHANNELS 3 Xrotation Yrotation Zrotation
										JOINT RightHand
										{
											OFFSET -27.849251 0.000000 0.000000
											CHANNELS 3 Xrotation Yrotation Zrotation
											End Site
											{
												OFFSET 0 0 0
											}
										}
									}
								}
							}
						}
					}
				}
			}
		}
	}
}
MOTION
Frames: 10
Frame Time: 0.03333333
0.092778 85.276375 0.255067 0.000000 0.000000 0.000000 -1.232353 -41.096217 3.347747 -45.189829 -2.674690 18.355770 46.798516 -3.826381 -3.026557 -5.509227 -2.443017 -12.626846 0.000000 0.000000 0.000000 3.231089 -29.464664 -1.398788 -28.677529 -11.751810 -19.950078 47.714650 1.408982 -0.985185 -7.111131 -1.311571 11.134518 0.000000 0.000000 0.000000 -1.304961 -16.528797 0.957138 -5.817992 -31.502513 6.861202 18.650499 2.469619 -6.569544 10.573107 2.155724 -4.548593 0.000000 0.000000 0.000000 10.681484 1.671786 -4.976575 2.774152 0.836408 -1.260827 0.000000 0.000000 0.000000 9.181248 2.793906 -3.100979 4.317124 -2.553951 -6.611420 -28.875502 -16.316016 -60.723988 -14.397631 -73.631154 -15.803079 0.000000 0.000000 0.000000 13.936293 4.313327 -3.666156 12.007852 17.793357 -8.887446 -31.002707 45.475673 44.145726 -163.982733 78.387957 164.475026 0.000000 0.000000 0.000000 
0.031304 85.257385 0.048110 0.000000 0.000000 0.000000 -1.257959 -41.211961 3.489862 -45.283830 -2.779439 18.492916 47.402438 -4.000258 -3.085514 -5.131921 -2.594172 -12.864545 0.000000 0.000000 0.000000 3.182477 -29.320380 -1.396323 -28.695233 -11.707941 -19.900560 47.871129 1.270594 -0.889941 -7.022570 -1.485002 11.172661 0.000000 0.000000 0.000000 -1.261917 -16.417826 0.971042 -5.708927 -31.214258 6.781026 18.906401 2.502150 -6.643970 10.760403 2.164082 -4.592678 0.000000 0.000000 0.000000 10.647291 1.670874 -5.026773 2.741591 0.826066 -1.260181 0.000000 0.000000 0.000000 9.240311 2.771310 -3.159751 4.278824 -2.775387 -6.602903 -29.092795 -16.578029 -60.480041 -14.433303 -74.063785 -15.737044 0.000000 0.000000 0.000000 13.966194 4.295952 -3.712978 11.972937 17.583335 -9.028008 -31.537272 45.363302 44.090346 -163.055467 78.369406 163.480018 0.000000 0.000000 0.000000 
-0.088774 85.225296 -0.354519 0.000000 0.000000 0.000000 -1.317125 -41.449795 3.755898 -45.480802 -2.984071 18.752662 48.588699 -4.340111 -3.198354 -4.398764 -2.889915 -13.327165 0.000000 0.000000 0.000000 3.081510 -29.033744 -1.403420 -28.738608 -11.616984 -19.817908 48.159459 1.010793 -0.700204 -6.864758 -1.816521 11.259960 0.000000 0.000000 0.000000 -1.163209 -16.214972 1.007351 -5.477765 -30.613854 6.634689 19.402389 2.574985 -6.773101 11.122599 2.179589 -4.670484 0.000000 0.000000 0.000000 10.566477 1.672159 -5.118779 2.675991 0.803939 -1.258849 0.000000 0.000000 0.000000 9.346629 2.723808 -3.265208 4.205462 -3.206165 -6.574275 -29.526348 -17.098853 -60.007501 -14.581083 -74.932086 -15.683793 0.000000 0.000000 0.000000 14.015886 4.260872 -3.800227 11.895404 17.195645 -9.308315 -32.544096 45.133767 43.941650 -161.268334 78.392963 161.559464 0.000000 0.000000 0.000000 
-0.262091 85.193352 -0.935072 0.000000 0.000000 0.000000 -1.426492 -41.809794 4.112562 -45.797501 -3.277503 19.109326 50.305450 -4.828358 -3.354943 -3.355112 -3.315213 -13.987657 0.000000 0.000000 0.000000 2.924181 -28.603150 -1.436422 -28.818931 -11.473536 -19.725836 48.537940 0.658935 -0.418824 -6.668735 -2.278445 11.413082 0.000000 0.000000 0.000000 -0.987420 -15.941936 1.079315 -5.100688 -29.660441 6.446314 20.114409 2.698653 -6.924644 11.637327 2.200328 -4.764071 0.000000 0.000000 0.000000 10.419844 1.680342 -5.237772 2.576568 0.768144 -1.256628 0.000000 0.000000 0.000000 9.482145 2.648214 -3.395778 4.104327 -3.823386 -6.506101 -30.183699 -17.865367 -59.335691 -15.000690 -76.228524 -15.805107 0.000000 0.000000 0.000000 14.069226 4.208241 -3.917517 11.765549 16.686398 -9.725943 -33.911592 44.780844 43.632485 -158.671059 78.557694 158.762242 0.000000 0.000000 0.000000 
-0.480966 85.182457 -1.676267 0.000000 0.000000 0.000000 -1.611863 -42.266730 4.515753 -46.254820 -3.640134 19.530742 52.456399 -5.433731 -3.540793 -2.073132 -3.842614 -14.802079 0.000000 0.000000 0.000000 2.711557 -28.016044 -1.505418 -28.943302 -11.271482 -19.642663 48.959455 0.249513 -0.053116 -6.465932 -2.835609 11.645617 0.000000 0.000000 0.000000 -0.711228 -15.602377 1.199112 -4.547724 -28.310174 6.244912 21.020059 2.879049 -7.064169 12.276325 2.224336 -4.852277 0.000000 0.000000 0.000000 10.189849 1.699463 -5.365502 2.442745 0.717844 -1.253008 0.000000 0.000000 0.000000 9.630546 2.542541 -3.524654 3.987426 -4.594903 -6.376372 -31.092951 -18.848421 -58.505597 -15.965595 -77.916585 -16.372938 0.000000 0.000000 0.000000 14.110031 4.139557 -4.053658 11.579221 16.121926 -10.275078 -35.503904 44.299695 43.083283 -155.180805 78.964684 154.995844 0.000000 0.000000 0.000000 
-0.735137 85.217705 -2.565917 0.000000 0.000000 0.000000 -1.906598 -42.755243 4.914299 -46.870715 -4.041674 19.981720 54.887427 -6.105740 -3.739515 -0.651749 -4.426954 -15.707523 0.000000 0.000000 0.000000 2.454460 -27.243922 -1.606929 -29.107380 -11.005264 -19.572081 49.381895 -0.184795 0.382529 -6.278853 -3.450247 11.959257 0.000000 0.000000 0.000000 -0.318383 -15.172171 1.372045 -3.790537 -26.535795 6.059705 22.104150 3.111854 -7.163802 13.009786 2.250013 -4.914923 0.000000 0.000000 0.000000 9.867730 1.731053 -5.483389 2.275076 0.654470 -1.247192 0.000000 0.000000 0.000000 9.783352 2.407784 -3.624441 3.870858 -5.480402 -6.164883 -32.307478 -20.004072 -57.568338 -17.959716 -79.918623 -17.865615 0.000000 0.000000 0.000000 14.126797 4.057646 -4.198883 11.342482 15.564937 -10.944377 -37.192750 43.685951 42.222935 -150.470789 79.677094 149.912216 0.000000 0.000000 0.000000 
-1.011871 85.321632 -3.595946 0.000000 0.000000 0.000000 -2.344755 -43.168800 5.254570 -47.650094 -4.440878 20.426347 57.385180 -6.770869 -3.937486 0.790679 -5.001681 -16.623456 0.000000 0.000000 0.000000 2.175306 -26.243368 -1.723359 -29.291837 -10.670670 -19.501689 49.772961 -0.617316 0.865021 -6.118378 -4.085435 12.338722 0.000000 0.000000 0.000000 0.191426 -14.609230 1.592699 -2.812637 -24.345236 5.916356 23.357375 3.382025 -7.206307 13.810166 2.276140 -4.935790 0.000000 0.000000 0.000000 9.456901 1.773450 -5.575155 2.076497 0.581959 -1.238323 0.000000 0.000000 0.000000 9.941320 2.248836 -3.671314 3.772414 -6.432587 -5.856078 -33.895838 -21.282472 -56.584152 -21.958394 -82.113818 -21.252644 0.000000 0.000000 0.000000 14.114793 3.965608 -4.345577 11.071337 15.063796 -11.716565 -38.885742 42.934057 41.007342 -143.831572 80.684745 142.772196 0.000000 0.000000 0.000000 
-1.297629 85.507385 -4.756409 0.000000 0.000000 0.000000 -2.948247 -43.376274 5.488328 -48.575435 -4.788816 20.830656 59.697902 -7.335773 -4.129036 2.132554 -5.481395 -17.459289 0.000000 0.000000 0.000000 1.905438 -24.964295 -1.828946 -29.464927 -10.265197 -19.409111 50.107968 -1.028287 1.363045 -5.988687 -4.706992 12.752337 0.000000 0.000000 0.000000 0.797619 -13.877792 1.844635 -1.619565 -21.791271 5.833606 24.770431 3.668410 -7.184836 14.654661 2.301548 -4.904204 0.000000 0.000000 0.000000 8.972527 1.822334 -5.628861 1.853412 0.505786 -1.225854 0.000000 0.000000 0.000000 10.111070 2.074402 -3.648282 3.707766 -7.399939 -5.441093 -35.918674 -22.638126 -55.621512 -30.308080 -84.330433 -28.881042 0.000000 0.000000 0.000000 14.075690 3.865181 -4.488302 10.787612 14.645792 -12.571288 -40.539143 42.040839 39.429425 -133.979024 81.869721 132.261668 0.000000 0.000000 0.000000 
-1.581429 85.775696 -6.028647 0.000000 0.000000 0.000000 -3.711235 -43.252088 5.584399 -49.602760 -5.036217 21.167053 61.580835 -7.700986 -4.318012 3.270943 -5.774126 -18.127684 0.000000 0.000000 0.000000 1.678410 -23.364889 -1.898597 -29.590931 -9.788850 -19.271565 50.363667 -1.404125 1.840337 -5.896364 -5.285205 13.157645 0.000000 0.000000 0.000000 1.461061 -12.972436 2.104092 -0.244665 -18.966944 5.821365 26.328166 3.950381 -7.100400 15.525939 2.324737 -4.815628 0.000000 0.000000 0.000000 8.438706 1.871888 -5.638232 1.616048 0.431239 -1.209835 0.000000 0.000000 0.000000 10.299616 1.895815 -3.547217 3.686479 -8.331471 -4.919688 -38.402322 -24.034015 -54.754003 -49.560536 -86.259005 -47.315265 0.000000 0.000000 0.000000 14.016248 3.755384 -4.623982 10.513522 14.314605 -13.490350 -42.148995 41.016550 37.518089 -119.075319 82.961233 116.522535 0.000000 0.000000 0.000000 
-1.858512 86.116684 -7.382927 0.000000 0.000000 0.000000 -4.591469 -42.708982 5.538231 -50.667159 -5.143114 21.418879 62.853149 -7.783045 -4.512771 4.140961 -5.801789 -18.560079 0.000000 0.000000 0.000000 1.521108 -21.429905 -1.915611 -29.641477 -9.245808 -19.074222 50.513449 -1.737283 2.261299 -5.857954 -5.797773 13.509448 0.000000 0.000000 0.000000 2.134204 -11.926798 2.346609 1.252846 -15.988751 5.880916 28.007414 4.212661 -6.959171 16.411295 2.343621 -4.671417 0.000000 0.000000 0.000000 7.884919 1.915909 -5.602634 1.377699 0.361793 -1.190869 0.000000 0.000000 0.000000 10.509745 1.724966 -3.369118 3.709495 -9.182538 -4.301321 -41.322354 -25.439193 -54.053554 -90.476149 -87.103552 -87.341543 0.000000 0.000000 0.000000 13.946911 3.632107 -4.752104 10.267297 14.051740 -14.461995 -43.724740 39.897136 35.329041 -98.365454 83.518290 94.796947 0.000000 0.000000 0.000000 
